<svg width="10" height="14" viewBox="0 0 10 14" fill="none" xmlns="http://www.w3.org/2000/svg">
<rect width="10" height="14" fill="#E5E5E5"/>
<g clip-path="url(#clip0_891_3857)">
<rect width="1280" height="1903" transform="translate(-788 -388)" fill="white"/>
<rect x="-788" y="-97" width="1280" height="1274" fill="white"/>
<g filter="url(#filter0_d_891_3857)">
<rect x="-330" y="-27" width="364" height="271" fill="#FDFDFD"/>
</g>
<rect x="-10" y="-8" width="30" height="30" rx="15" fill="#F9F9F9"/>
<path d="M1.4 1H8.6C9.09706 1 9.5 1.40294 9.5 1.9V12.4789C9.5 12.5552 9.41798 12.6034 9.35133 12.5662L6.21676 10.8198C5.46033 10.3984 4.53968 10.3984 3.78324 10.8198L0.648671 12.5662C0.582015 12.6034 0.5 12.5552 0.5 12.4789V1.9C0.5 1.40294 0.902944 1 1.4 1Z" stroke="#E8E8E8"/>
</g>
<defs>
<filter id="filter0_d_891_3857" x="-360" y="-53" width="424" height="331" filterUnits="userSpaceOnUse" color-interpolation-filters="sRGB">
<feFlood flood-opacity="0" result="BackgroundImageFix"/>
<feColorMatrix in="SourceAlpha" type="matrix" values="0 0 0 0 0 0 0 0 0 0 0 0 0 0 0 0 0 0 127 0" result="hardAlpha"/>
<feOffset dy="4"/>
<feGaussianBlur stdDeviation="15"/>
<feColorMatrix type="matrix" values="0 0 0 0 0 0 0 0 0 0 0 0 0 0 0 0 0 0 0.08 0"/>
<feBlend mode="normal" in2="BackgroundImageFix" result="effect1_dropShadow_891_3857"/>
<feBlend mode="normal" in="SourceGraphic" in2="effect1_dropShadow_891_3857" result="shape"/>
</filter>
<clipPath id="clip0_891_3857">
<rect width="1280" height="1903" fill="white" transform="translate(-788 -388)"/>
</clipPath>
</defs>
</svg>
