<svg width="10" height="14" viewBox="0 0 10 14" fill="none" xmlns="http://www.w3.org/2000/svg">
<rect width="10" height="14" fill="#E5E5E5"/>
<g clip-path="url(#clip0_891_3857)">
<rect width="1280" height="1903" transform="translate(-1176 -388)" fill="white"/>
<rect x="-1176" y="-97" width="1280" height="1274" fill="white"/>
<g filter="url(#filter0_d_891_3857)">
<rect x="-330" y="-27" width="364" height="271" fill="#FDFDFD"/>
</g>
<rect x="-10" y="-8" width="30" height="30" rx="15" fill="black"/>
<path d="M0 1.9C0 1.1268 0.626801 0.5 1.4 0.5H8.6C9.3732 0.5 10 1.1268 10 1.9V12.4789C10 12.9367 9.50791 13.2258 9.10798 13.003L5.97341 11.2566C5.36826 10.9195 4.63174 10.9195 4.0266 11.2566L0.892022 13.003C0.492092 13.2258 0 12.9367 0 12.4789V1.9Z" fill="white"/>
</g>
<defs>
<filter id="filter0_d_891_3857" x="-360" y="-53" width="424" height="331" filterUnits="userSpaceOnUse" color-interpolation-filters="sRGB">
<feFlood flood-opacity="0" result="BackgroundImageFix"/>
<feColorMatrix in="SourceAlpha" type="matrix" values="0 0 0 0 0 0 0 0 0 0 0 0 0 0 0 0 0 0 127 0" result="hardAlpha"/>
<feOffset dy="4"/>
<feGaussianBlur stdDeviation="15"/>
<feColorMatrix type="matrix" values="0 0 0 0 0 0 0 0 0 0 0 0 0 0 0 0 0 0 0.08 0"/>
<feBlend mode="normal" in2="BackgroundImageFix" result="effect1_dropShadow_891_3857"/>
<feBlend mode="normal" in="SourceGraphic" in2="effect1_dropShadow_891_3857" result="shape"/>
</filter>
<clipPath id="clip0_891_3857">
<rect width="1280" height="1903" fill="white" transform="translate(-1176 -388)"/>
</clipPath>
</defs>
</svg>
