<svg width="30" height="30" viewBox="0 0 30 30" fill="none" xmlns="http://www.w3.org/2000/svg">
<rect width="30" height="30" fill="#E5E5E5"/>
<g clip-path="url(#clip0_891_3857)">
<rect width="1280" height="1903" transform="translate(-778 -380)" fill="white"/>
<rect x="-778" y="-89" width="1280" height="1274" fill="white"/>
<g filter="url(#filter0_d_891_3857)">
<rect x="-320" y="-19" width="364" height="271" fill="#FDFDFD"/>
</g>
<rect width="30" height="30" rx="15" fill="#F9F9F9"/>
<path d="M10.5 9.9C10.5 9.40294 10.9029 9 11.4 9H18.6C19.0971 9 19.5 9.40294 19.5 9.9V20.4789C19.5 20.5552 19.418 20.6034 19.3513 20.5662L16.2168 18.8198C15.4603 18.3984 14.5397 18.3984 13.7832 18.8198L10.6487 20.5662C10.582 20.6034 10.5 20.5552 10.5 20.4789V9.9Z" stroke="#E8E8E8"/>
</g>
<defs>
<filter id="filter0_d_891_3857" x="-350" y="-45" width="424" height="331" filterUnits="userSpaceOnUse" color-interpolation-filters="sRGB">
<feFlood flood-opacity="0" result="BackgroundImageFix"/>
<feColorMatrix in="SourceAlpha" type="matrix" values="0 0 0 0 0 0 0 0 0 0 0 0 0 0 0 0 0 0 127 0" result="hardAlpha"/>
<feOffset dy="4"/>
<feGaussianBlur stdDeviation="15"/>
<feColorMatrix type="matrix" values="0 0 0 0 0 0 0 0 0 0 0 0 0 0 0 0 0 0 0.08 0"/>
<feBlend mode="normal" in2="BackgroundImageFix" result="effect1_dropShadow_891_3857"/>
<feBlend mode="normal" in="SourceGraphic" in2="effect1_dropShadow_891_3857" result="shape"/>
</filter>
<clipPath id="clip0_891_3857">
<rect width="1280" height="1903" fill="white" transform="translate(-778 -380)"/>
</clipPath>
</defs>
</svg>
